<svg width="950" height="115" viewBox="0 0 950 115" fill="none" xmlns="http://www.w3.org/2000/svg">
<g clip-path="url(#clip0_5014_412)">
<path d="M201.957 92.1579V79.6418C200.449 81.7511 198.676 83.6864 196.613 85.4364C187.744 92.9806 173.589 96.9676 155.691 96.9676C144.654 96.9676 128.912 95.2178 116.647 86.9082C109.169 81.8438 104.927 74.2528 103.733 63.8457C103.501 65.7927 103.374 67.8208 103.374 69.9648C103.374 70.834 103.397 71.68 103.42 72.5145C103.397 73.1866 103.374 73.8588 103.374 74.5541C103.374 88.3224 107.72 97.953 116.647 104.014C128.912 112.335 144.643 114.073 155.691 114.073C173.589 114.073 187.744 110.086 196.613 102.542C198.676 100.792 200.449 98.8566 201.957 96.7473V112.926H240.908V95.8202H201.957V92.1579Z" fill="#0000FF"/>
<path d="M394.138 30.3761C396.862 27.7917 400.328 25.5782 404.525 23.7587C413.544 19.8531 424.58 17.8713 437.332 17.8713C450.745 17.8713 462.267 20.0849 471.6 24.4424C476.538 26.7487 480.155 29.3911 482.45 32.3346C483.4 31.2917 484.421 30.3066 485.522 29.3678C494.437 21.8464 508.556 17.8713 526.374 17.8713C542.232 17.8713 555.379 21.1394 564.363 27.3165C566.508 28.7768 568.385 30.4224 570.043 32.2072C570.959 31.2105 571.944 30.2602 573.011 29.3678C581.926 21.8464 596.046 17.8713 613.863 17.8713C629.617 17.8713 642.231 21.0467 651.354 27.3165C653.591 28.8579 655.573 30.5731 657.312 32.4622C658.286 31.3728 659.34 30.3413 660.5 29.3678C669.414 21.8464 683.535 17.8713 701.353 17.8713C717.211 17.8713 730.345 21.1394 739.33 27.3165C746.83 32.4622 751.316 39.5663 752.95 48.8957C753.426 46.2301 753.658 43.3791 753.658 40.3312C753.658 26.6675 748.974 16.8167 739.318 10.1992C730.334 4.02222 717.199 0.754059 701.34 0.754059C683.523 0.754059 669.403 4.72916 660.489 12.2505C659.341 13.224 658.286 14.2555 657.3 15.3449C655.562 13.4559 653.591 11.7407 651.342 10.1992C642.231 3.9295 629.606 0.754059 613.852 0.754059C596.034 0.754059 581.914 4.72916 573 12.2505C571.933 13.1545 570.947 14.1048 570.032 15.0899C568.374 13.2936 566.496 11.6595 564.351 10.1992C555.367 4.02222 542.221 0.754059 526.363 0.754059C508.545 0.754059 494.425 4.72916 485.51 12.2505C484.397 13.1893 483.378 14.1744 482.438 15.2174C480.143 12.2854 476.538 9.64297 471.587 7.32514C462.255 2.9676 450.732 0.754059 437.32 0.754059C423.907 0.754059 413.532 2.73581 404.513 6.64138C400.317 8.46089 396.851 10.6744 394.126 13.2588V2.35337H282.942V19.4591H394.126V30.3645L394.138 30.3761Z" fill="#FF0000"/>
<path d="M120.798 25.4159C129.563 20.4673 141.538 17.8829 155.901 17.8829C171.771 17.8829 184.906 21.1511 193.889 27.3281C197.136 29.5533 199.813 32.1608 201.947 35.1509V19.4707H237.153L282.932 56.3939V39.2882L237.153 2.36498H201.947V18.0452C199.813 15.0551 197.136 12.4476 193.889 10.2225C184.906 4.04541 171.771 0.777252 155.901 0.777252C141.526 0.777252 129.563 3.36164 120.798 8.31024V2.36498H0.340332V19.4707H120.798V25.4159Z" fill="#FF0000"/>
<path d="M534.003 50.4717C530.224 47.5281 527.047 47.5281 525.679 47.5281C523.361 47.5281 520.938 48.5248 518.481 50.5065C516.973 51.7118 513.844 55.2117 512.766 63.6951C513.844 72.2479 517.008 75.7015 518.515 76.8836C522.294 79.8388 525.32 79.8388 526.619 79.8388C529.03 79.8388 531.511 78.8306 533.992 76.8488C535.718 75.4697 538.385 72.0161 539.301 63.6488C538.397 55.2234 535.718 51.8045 534.003 50.4601V50.4717Z" fill="#FF0000"/>
<path d="M439.094 75.4929C438.155 75.4929 435.965 75.5856 431.872 76.1651L428.43 76.6518C431.756 79.8157 435.744 79.8389 437.588 79.8389C439.999 79.8389 443.244 79.5955 446.977 77.6833C447.209 77.5674 447.418 77.4283 447.638 77.3008C445.134 76.026 442.584 75.4813 439.094 75.4813V75.4929Z" fill="#0000FF"/>
<path d="M389.549 59.9517V64.541V65.5609V68.2148L417.765 66.1751L417.904 65.642L414.739 66.094L416.247 59.9053L389.549 57.3326V59.9517Z" fill="#0000FF"/>
<path d="M621.492 50.4717C617.712 47.5281 614.536 47.5281 613.168 47.5281C610.85 47.5281 608.426 48.5248 605.969 50.5065C604.462 51.7118 601.332 55.2117 600.253 63.6951C601.332 72.2479 604.497 75.7015 606.004 76.8836C609.783 79.8388 612.808 79.8388 614.107 79.8388C616.519 79.8388 618.999 78.8306 621.479 76.8488C623.207 75.4697 625.873 72.0161 626.789 63.6488C625.885 55.2234 623.207 51.8045 621.492 50.4601V50.4717Z" fill="#FF0000"/>
<path d="M708.97 50.4717C705.191 47.5281 702.014 47.5281 700.647 47.5281C698.328 47.5281 695.906 48.5248 693.448 50.5065C691.941 51.7118 688.811 55.2117 687.733 63.6951C688.811 72.2479 691.975 75.7015 693.483 76.8836C697.262 79.8388 700.288 79.8388 701.586 79.8388C703.997 79.8388 706.478 78.8306 708.959 76.8488C710.687 75.4697 713.352 72.0161 714.268 63.6488C713.364 55.2234 710.687 51.8045 708.97 50.4601V50.4717Z" fill="#FF0000"/>
<path d="M163.539 50.4717C159.76 47.5281 156.583 47.5281 155.216 47.5281C152.897 47.5281 150.475 48.5248 148.016 50.5065C146.312 51.8856 143.646 55.3393 142.742 63.6951C143.646 72.1088 146.324 75.5392 148.051 76.8836C151.83 79.8388 154.856 79.8388 156.155 79.8388C158.566 79.8388 161.047 78.8306 163.528 76.8488C165.254 75.4697 167.921 72.0161 168.825 63.6488C167.921 55.2234 165.243 51.8045 163.528 50.4601L163.539 50.4717Z" fill="#FF0000"/>
<path d="M40.6825 37.5962H0.340332V50.1125V54.7019H40.6825V50.1125V37.5962Z" fill="#0000FF"/>
<path d="M40.6816 108.337V112.926H80.247V108.337V95.8202H40.6816V108.337Z" fill="#0000FF"/>
<path d="M108.116 37.5962H80.2588V54.7019H103.455C103.78 48.0728 105.334 42.4057 108.116 37.5962Z" fill="#0000FF"/>
<path d="M742.043 85.4363C733.175 92.9806 719.02 96.9676 701.121 96.9676C690.074 96.9676 674.342 95.2178 662.077 86.9081C660.292 85.7029 658.704 84.3354 657.278 82.8404C656.432 83.7443 655.528 84.6135 654.554 85.4363C645.686 92.9806 631.531 96.9676 613.633 96.9676C602.584 96.9676 586.854 95.2178 574.589 86.9081C572.803 85.7029 571.215 84.3354 569.789 82.8404C568.943 83.7443 568.039 84.6135 567.065 85.4363C558.196 92.9806 544.042 96.9676 526.143 96.9676C515.096 96.9676 499.364 95.2178 487.099 86.9081C486.01 86.1665 484.99 85.3668 484.027 84.5208C481.836 86.2824 479.17 87.9167 476.017 89.4114C465.502 94.4178 452.658 96.9676 437.831 96.9676C423.897 96.9676 411.922 94.6964 402.254 90.2227C400.318 89.3305 398.556 88.3685 396.967 87.3483V95.8202H286.56L240.885 58.9086V76.0143L286.56 112.926H396.967V104.454C398.556 105.474 400.318 106.436 402.254 107.329C411.922 111.802 423.886 114.073 437.831 114.073C452.658 114.073 465.514 111.535 476.017 106.517C479.17 105.01 481.836 103.376 484.027 101.627C484.978 102.473 486.01 103.272 487.099 104.014C499.364 112.335 515.096 114.073 526.143 114.073C544.042 114.073 558.196 110.086 567.065 102.542C568.039 101.719 568.943 100.85 569.789 99.9456C571.203 101.441 572.803 102.809 574.589 104.014C586.854 112.335 602.584 114.073 613.633 114.073C631.531 114.073 645.686 110.086 654.554 102.542C655.528 101.719 656.432 100.85 657.278 99.9456C658.693 101.441 660.292 102.809 662.077 104.014C674.342 112.335 690.074 114.073 701.121 114.073C719.02 114.073 733.175 110.086 742.043 102.542C749.857 95.9012 753.647 86.746 753.647 74.5541C753.647 73.7892 753.624 73.0359 753.601 72.2941C753.636 71.5293 753.647 70.7528 753.647 69.9648C753.647 67.786 753.52 65.7115 753.276 63.7182C752.152 72.8389 748.454 79.9894 742.043 85.4363Z" fill="#0000FF"/>
<path d="M423.016 65.8043L424.859 70.9268C425.798 73.5344 427.05 75.3539 428.429 76.6634L431.872 76.1767C435.953 75.5973 438.156 75.5046 439.095 75.5046C442.573 75.5046 445.134 76.0492 447.639 77.3241C450.444 75.7016 451.824 73.5923 451.824 70.892C451.824 68.1917 450.456 66.2332 447.627 64.8077C445.123 63.5329 442.573 62.9882 439.083 62.9882C438.145 62.9882 435.953 63.0809 431.861 63.6603L417.892 65.6537L417.764 66.1868L423.004 65.8043H423.016Z" fill="#0000FF"/>
<path d="M388.91 37.5962H321.8V47.447H389.547V57.3442L416.245 59.917L419.224 47.6904L386.429 44.5381L388.04 39.7633C388.284 39.0332 388.574 38.3147 388.898 37.6193L388.91 37.5962Z" fill="#0000FF"/>
<path d="M534.002 37.9554C530.223 35.0117 527.047 35.0117 525.679 35.0117C523.36 35.0117 520.938 36.0085 518.479 37.9902C516.648 39.462 512.394 44.3063 512.394 57.437C512.394 59.7895 512.533 61.864 512.765 63.7066C513.843 55.2234 516.973 51.7234 518.479 50.5181C520.938 48.548 523.36 47.5397 525.679 47.5397C527.035 47.5397 530.223 47.5397 534.002 50.4834C535.718 51.8277 538.396 55.235 539.3 63.6719C539.497 61.8408 539.613 59.778 539.613 57.4485C539.613 44.3179 536.1 39.6127 534.002 37.9786V37.9554Z" fill="#0000FF"/>
<path d="M321.8 65.5609V77.7065H387.843C387.159 76.281 386.672 74.7975 386.394 73.2446L385.548 68.5046L389.547 68.2149V65.5609H321.8Z" fill="#0000FF"/>
<path d="M163.538 37.9554C159.759 35.0117 156.583 35.0117 155.215 35.0117C152.897 35.0117 150.473 36.0085 148.016 37.9902C145.93 39.6706 142.428 44.4222 142.428 57.437C142.428 59.7895 142.544 61.864 142.742 63.7066C143.646 55.3508 146.301 51.8973 148.016 50.5181C150.473 48.548 152.897 47.5397 155.215 47.5397C156.571 47.5397 159.759 47.5397 163.538 50.4834C165.254 51.8277 167.932 55.235 168.836 63.6719C169.033 61.8408 169.149 59.778 169.149 57.4485C169.149 44.3179 165.637 39.6127 163.538 37.9786V37.9554Z" fill="#0000FF"/>
<path d="M443.454 36.1939C441.703 35.3479 439.999 35.0002 437.588 35.0002C435.003 35.0002 433.194 35.371 431.34 36.2866C429.682 37.1095 427.491 38.8594 426.47 42.5796L425.509 46.1142L432.904 46.3924C438.503 46.3461 441.193 45.4653 442.735 44.7931C444.277 44.1209 446.317 42.9388 446.317 40.2733C446.317 37.6078 444.161 36.5184 443.454 36.1707V36.1939Z" fill="#0000FF"/>
<path d="M621.492 37.9554C617.712 35.0117 614.536 35.0117 613.168 35.0117C610.85 35.0117 608.426 36.0085 605.969 37.9902C604.138 39.462 599.883 44.3063 599.883 57.437C599.883 59.7895 600.022 61.864 600.254 63.7066C601.332 55.2234 604.462 51.7234 605.969 50.5181C608.426 48.548 610.85 47.5397 613.168 47.5397C614.524 47.5397 617.712 47.5397 621.492 50.4834C623.207 51.8277 625.885 55.235 626.789 63.6719C626.986 61.8408 627.102 59.778 627.102 57.4485C627.102 44.3179 623.59 39.6127 621.492 37.9786V37.9554Z" fill="#0000FF"/>
<path d="M708.969 37.9554C705.19 35.0117 702.013 35.0117 700.646 35.0117C698.327 35.0117 695.905 36.0085 693.447 37.9902C691.615 39.462 687.361 44.3063 687.361 57.437C687.361 59.7895 687.5 61.864 687.732 63.7066C688.81 55.2234 691.94 51.7234 693.447 50.5181C695.905 48.548 698.327 47.5397 700.646 47.5397C702.002 47.5397 705.19 47.5397 708.969 50.4834C710.685 51.8277 713.363 55.235 714.267 63.6719C714.465 61.8408 714.58 59.778 714.58 57.4485C714.58 44.3179 711.068 39.6127 708.969 37.9786V37.9554Z" fill="#0000FF"/>
<path d="M752.929 48.9072C751.295 39.5779 746.809 32.4621 739.308 27.3281C730.324 21.1511 717.189 17.8829 701.331 17.8829C683.513 17.8829 669.393 21.858 660.478 29.3794C659.331 30.3529 658.276 31.3843 657.29 32.4737C655.551 30.5847 653.581 28.8695 651.332 27.3281C642.22 21.0584 629.596 17.8829 613.841 17.8829C596.024 17.8829 581.904 21.858 572.99 29.3794C571.923 30.2834 570.937 31.2337 570.022 32.2187C568.364 30.4224 566.486 28.7884 564.341 27.3281C555.358 21.1511 542.211 17.8829 526.353 17.8829C508.535 17.8829 494.415 21.858 485.5 29.3794C484.388 30.3181 483.367 31.3032 482.428 32.3463C480.133 29.4142 476.528 26.7718 471.578 24.454C462.246 20.0964 450.723 17.8829 437.31 17.8829C423.898 17.8829 413.522 19.8646 404.504 23.7702C400.307 25.5897 396.841 27.8033 394.116 30.3877V19.4822H282.932V56.4055L237.153 19.4822H201.947V35.1624C199.813 32.1724 197.136 29.5649 193.889 27.3397C184.906 21.1627 171.771 17.8945 155.901 17.8945C141.526 17.8945 129.563 20.4789 120.798 25.4274V19.4822H0.340332V37.6077H40.6825V95.8316H80.2479V37.6077H108.105C105.311 42.4173 103.769 48.0844 103.445 54.7134C103.398 55.6174 103.375 56.5213 103.375 57.4601C103.375 59.7084 103.503 61.8292 103.735 63.8573C104.928 74.2644 109.172 81.8438 116.648 86.9198C128.913 95.2405 144.644 96.9789 155.692 96.9789C173.591 96.9789 187.746 92.9928 196.614 85.448C198.678 83.698 200.452 81.7627 201.958 79.6534V95.8316H240.909V58.9203L286.584 95.8316H396.991V87.3605C398.58 88.3799 400.341 89.3418 402.278 90.2341C411.946 94.7077 423.909 96.9789 437.855 96.9789C452.682 96.9789 465.538 94.4413 476.041 89.4228C479.194 87.9167 481.861 86.2824 484.052 84.5325C485.002 85.3785 486.033 86.1781 487.124 86.9198C499.388 95.2405 515.12 96.9789 526.167 96.9789C544.066 96.9789 558.221 92.9928 567.089 85.448C568.063 84.6252 568.967 83.756 569.813 82.852C571.227 84.3471 572.827 85.7146 574.613 86.9198C586.878 95.2405 602.608 96.9789 613.656 96.9789C631.556 96.9789 645.71 92.9928 654.578 85.448C655.551 84.6252 656.456 83.756 657.303 82.852C658.717 84.3471 660.316 85.7146 662.101 86.9198C674.366 95.2405 690.098 96.9789 701.145 96.9789C719.044 96.9789 733.198 92.9928 742.067 85.448C748.478 80.0011 752.176 72.8505 753.3 63.7299C753.544 61.7365 753.671 59.6504 753.671 57.4601C753.671 54.4237 753.427 51.5843 752.964 48.9188L752.929 48.9072ZM419.226 47.6671L416.247 59.8938L414.74 66.0825L417.893 65.6305L431.862 63.6372C435.942 63.0576 438.145 62.9649 439.084 62.9649C442.562 62.9649 445.124 63.5096 447.628 64.7844C450.456 66.2215 451.824 68.2149 451.824 70.8688C451.824 73.5227 450.445 75.6783 447.639 77.3008C447.419 77.4282 447.21 77.5558 446.978 77.6832C443.245 79.5839 440 79.8388 437.589 79.8388C435.745 79.8388 431.746 79.8272 428.431 76.6518C427.063 75.3422 425.811 73.5227 424.86 70.9152L423.016 65.7927L417.777 66.1752L389.56 68.2149L385.561 68.5046L386.407 73.2446C386.686 74.7975 387.173 76.281 387.856 77.7064H321.814V65.5609H389.56V47.4354H321.814V37.5846H388.923C388.598 38.2799 388.308 38.9985 388.065 39.7286L386.453 44.5033L419.249 47.6556L419.226 47.6671ZM442.736 44.8046C441.194 45.4768 438.516 46.3576 432.905 46.4039L425.509 46.1258L426.472 42.5911C427.48 38.8709 429.671 37.121 431.34 36.2982C433.195 35.3826 435.003 35.0117 437.589 35.0117C440 35.0117 441.704 35.3594 443.454 36.2055C444.161 36.5531 446.317 37.5846 446.317 40.308C446.317 43.0315 444.277 44.1556 442.736 44.8278V44.8046ZM539.301 63.6487C538.397 72.0161 535.72 75.4697 533.992 76.8488C531.511 78.8306 529.019 79.8388 526.619 79.8388C525.321 79.8388 522.295 79.8388 518.516 76.8836C516.997 75.7015 513.844 72.2363 512.766 63.695C512.535 61.8524 512.395 59.7779 512.395 57.4253C512.395 44.2947 516.65 39.462 518.481 37.9786C520.939 36.0084 523.362 35.0002 525.681 35.0002C527.036 35.0002 530.224 35.0002 534.003 37.9438C536.102 39.5779 539.615 44.2832 539.615 57.4137C539.615 59.7547 539.499 61.806 539.301 63.6372V63.6487ZM626.791 63.6487C625.887 72.0161 623.208 75.4697 621.482 76.8488C619.001 78.8306 616.508 79.8388 614.109 79.8388C612.81 79.8388 609.784 79.8388 606.005 76.8836C604.487 75.7015 601.334 72.2363 600.255 63.695C600.023 61.8524 599.885 59.7779 599.885 57.4253C599.885 44.2947 604.139 39.462 605.97 37.9786C608.428 36.0084 610.851 35.0002 613.169 35.0002C614.526 35.0002 617.714 35.0002 621.493 37.9438C623.591 39.5779 627.103 44.2832 627.103 57.4137C627.103 59.7547 626.987 61.806 626.791 63.6372V63.6487ZM714.268 63.6487C713.364 72.0161 710.686 75.4697 708.959 76.8488C706.478 78.8306 703.986 79.8388 701.586 79.8388C700.288 79.8388 697.262 79.8388 693.482 76.8836C691.964 75.7015 688.811 72.2363 687.733 63.695C687.501 61.8524 687.362 59.7779 687.362 57.4253C687.362 44.2947 691.616 39.462 693.448 37.9786C695.906 36.0084 698.328 35.0002 700.647 35.0002C702.003 35.0002 705.191 35.0002 708.97 37.9438C711.069 39.5779 714.581 44.2832 714.581 57.4137C714.581 59.7547 714.465 61.806 714.268 63.6372V63.6487ZM168.838 63.6487C167.934 72.0161 165.256 75.4697 163.54 76.8488C161.059 78.8306 158.567 79.8388 156.167 79.8388C154.869 79.8388 151.843 79.8388 148.064 76.8836C146.337 75.5392 143.659 72.1088 142.755 63.695C142.558 61.8524 142.442 59.7779 142.442 57.4253C142.442 44.4222 145.943 39.659 148.029 37.9786C150.487 36.0084 152.91 35.0002 155.229 35.0002C156.585 35.0002 159.772 35.0002 163.552 37.9438C165.65 39.5779 169.163 44.2832 169.163 57.4137C169.163 59.7547 169.047 61.806 168.849 63.6372L168.838 63.6487Z" fill="#FFFF00"/>
</g>
<path d="M837.044 27.6206L837.244 28.2466L855.607 86.1196L855.978 87.2886H846.773L846.579 86.6528L842.203 72.3042H824.21L819.756 86.6567L819.56 87.2886H810.312L810.691 86.1157L829.373 28.2427L829.574 27.6206H837.044ZM883.587 27.6206C886.267 27.6753 888.807 28.0997 891.203 28.8979L891.656 29.0522C893.9 29.8459 895.891 30.9607 897.618 32.3999C899.469 33.943 900.926 35.8484 901.986 38.105L902.186 38.5376C903.152 40.7181 903.625 43.1744 903.625 45.8882C903.624 48.7809 903.086 51.38 901.987 53.6655L901.988 53.6665C900.927 55.8999 899.469 57.7933 897.618 59.3364C895.776 60.8712 893.634 62.0354 891.205 62.8364L891.206 62.8374C888.806 63.6373 886.261 64.0483 883.578 64.0757H873.059V87.2886H863.91V27.6206H883.587ZM948.898 27.6206V35.8149H935.026V79.1333H948.898V87.2886H912.125V79.1333H925.678V35.8149H912.125V27.6206H948.898ZM826.752 64.1089H839.708L833.28 42.9517L826.752 64.1089ZM873.059 56.2388H883.554C885.161 56.2137 886.625 55.9626 887.953 55.4966C889.282 55.0034 890.427 54.3203 891.395 53.4487C892.356 52.5842 893.102 51.5387 893.635 50.3022L893.638 50.2944C894.19 49.0478 894.476 47.6111 894.476 45.9673C894.476 44.3241 894.19 42.8718 893.636 41.5952L893.63 41.5815C893.094 40.2889 892.358 39.2057 891.425 38.3188C890.459 37.4254 889.305 36.73 887.952 36.2378L887.947 36.2358C886.787 35.8064 885.523 35.5519 884.15 35.478L883.554 35.4575H873.059V56.2388Z" fill="white" stroke="white" stroke-width="1.79545"/>
<defs>
<clipPath id="clip0_5014_412">
<rect width="754.091" height="114.909" fill="white"/>
</clipPath>
</defs>
</svg>
